<svg width="25" height="25" viewBox="0 0 25 25" fill="none" xmlns="http://www.w3.org/2000/svg">
<path d="M3.57143 0C1.60156 0 0 1.60156 0 3.57143V21.4286C0 23.3984 1.60156 25 3.57143 25H21.4286C23.3984 25 25 23.3984 25 21.4286V3.57143C25 1.60156 23.3984 0 21.4286 0H3.57143ZM12.5 12.0201C13.3092 10.346 15.5134 7.23214 17.5614 5.69754C19.0402 4.58705 21.4286 3.73326 21.4286 6.46205C21.4286 7.00893 21.1161 11.0435 20.9319 11.6964C20.2958 13.9732 17.9743 14.5536 15.9096 14.202C19.5201 14.8158 20.4408 16.8527 18.4542 18.8895C14.6875 22.7567 13.0413 17.9185 12.6172 16.6797L12.6004 16.6295C12.5502 16.4844 12.5223 16.4007 12.5 16.4007C12.4777 16.4007 12.4498 16.4844 12.3996 16.6295L12.3828 16.6797C11.9587 17.9185 10.3125 22.7511 6.54576 18.8895C4.56473 16.8527 5.47991 14.8158 9.0904 14.202C7.02567 14.5536 4.70424 13.9732 4.06808 11.6964C3.88393 11.0435 3.57143 7.00893 3.57143 6.46205C3.57143 3.73326 5.9654 4.59263 7.43862 5.69754C9.48661 7.23214 11.6908 10.3516 12.5 12.0201Z" fill="#918E9B"/>
</svg>
