<?xml version="1.0" encoding="UTF-8"?>
<svg version="1.1" xmlns="http://www.w3.org/2000/svg" width="32" height="32">
<path d="M0 0 C10.56 0 21.12 0 32 0 C32 10.56 32 21.12 32 32 C21.44 32 10.88 32 0 32 C0 21.44 0 10.88 0 0 Z " fill="#0A1227" transform="translate(0,0)"/>
<path d="M0 0 C6.8359375 -0.1953125 6.8359375 -0.1953125 9 0 C11.35302007 2.35302007 11.39392208 3.27435295 11.75 6.5 C11.89695312 7.69109375 11.89695312 7.69109375 12.046875 8.90625 C12 11 12 11 10 13 C7.6171875 13.1953125 7.6171875 13.1953125 4.875 13.125 C2.461875 13.063125 2.461875 13.063125 0 13 C0 8.71 0 4.42 0 0 Z " fill="#F8F8F8" transform="translate(3,9)"/>
<path d="M0 0 C1.98 0.99 1.98 0.99 4 2 C8.1490712 2.2981424 8.1490712 2.2981424 12 0 C12 3.96 12 7.92 12 12 C11.34 12 10.68 12 10 12 C9.67 9.69 9.34 7.38 9 5 C7.02 5.99 7.02 5.99 5 7 C4.34 6.34 3.68 5.68 3 5 C2.67 7.31 2.34 9.62 2 12 C1.34 12 0.68 12 0 12 C0 8.04 0 4.08 0 0 Z " fill="#F0F0F2" transform="translate(17,10)"/>
<path d="M0 0 C2.31 0 4.62 0 7 0 C7 1.32 7 2.64 7 4 C4.69 4 2.38 4 0 4 C0 2.68 0 1.36 0 0 Z " fill="#171F32" transform="translate(5,16)"/>
<path d="M0 0 C1.98 0.99 1.98 0.99 4 2 C3.34 5.3 2.68 8.6 2 12 C1.34 12 0.68 12 0 12 C0 8.04 0 4.08 0 0 Z " fill="#F8F8F9" transform="translate(17,10)"/>
<path d="M0 0 C1.98 0 3.96 0 6 0 C6 0.99 6 1.98 6 3 C4.02 3 2.04 3 0 3 C0 2.01 0 1.02 0 0 Z " fill="#33394B" transform="translate(5,11)"/>
</svg>
