<svg width="14" height="14" viewBox="0 0 14 14" fill="none" xmlns="http://www.w3.org/2000/svg">
<path d="M12.7143 0.333374H1.28275C0.758939 0.333374 0.333344 0.764922 0.333344 1.29468V12.7054C0.333344 13.2352 0.758939 13.6667 1.28275 13.6667H12.7143C13.2381 13.6667 13.6667 13.2352 13.6667 12.7054V1.29468C13.6667 0.764922 13.2381 0.333374 12.7143 0.333374ZM4.36311 11.7619H2.38692V5.39885H4.36608V11.7619H4.36311ZM3.37501 4.5298C2.74108 4.5298 2.22918 4.01492 2.22918 3.38397C2.22918 2.75302 2.74108 2.23814 3.37501 2.23814C4.00596 2.23814 4.52084 2.75302 4.52084 3.38397C4.52084 4.0179 4.00894 4.5298 3.37501 4.5298V4.5298ZM11.7708 11.7619H9.79465V8.66671C9.79465 7.92861 9.77977 6.97921 8.76787 6.97921C7.73811 6.97921 7.58037 7.78278 7.58037 8.61314V11.7619H5.60418V5.39885H7.50001V6.2679H7.5268C7.79168 5.7679 8.43751 5.24111 9.39882 5.24111C11.3988 5.24111 11.7708 6.55956 11.7708 8.27385V11.7619V11.7619Z" fill="white"/>
</svg>
