<svg width="25" height="25" viewBox="0 0 25 25" fill="none" xmlns="http://www.w3.org/2000/svg">
<path d="M3.57007 0C1.60095 0 0 1.60092 0 3.57V21.42C0 23.3891 1.60095 24.99 3.57007 24.99H21.4204C23.3895 24.99 24.9905 23.3891 24.9905 21.42V3.57C24.9905 1.60092 23.3895 0 21.4204 0H3.57007ZM20.143 4.68562L14.3528 11.3013L21.1638 20.3044H15.831L11.6585 14.8434L6.87796 20.3044H4.2283L10.4201 13.2257L3.88803 4.68562H9.35469L13.1312 9.67805L17.4933 4.68562H20.143ZM18.0344 18.7202L8.55701 6.18614H6.97837L16.5618 18.7202H18.0288H18.0344Z" fill="#918E9B"/>
</svg>
